<svg xmlns="http://www.w3.org/2000/svg" xmlns:xlink="http://www.w3.org/1999/xlink" width="51" height="47" viewBox="0 0 51 47" fill="none">
<path d="M25.5001 0C27.8473 0 29.7501 1.6909 29.7501 3.7768C29.7501 5.25932 28.7889 6.54227 27.3902 7.16048L27.389 10.0714L38.7224 10.0714C41.852 10.0714 44.3891 12.326 44.3891 15.1071L44.3894 27.0855L44.5957 27.1777C44.8246 27.2826 45.0493 27.394 45.27 27.5119C45.4907 27.6298 45.7068 27.754 45.9183 27.8845C46.1299 28.0149 46.3364 28.1514 46.5379 28.2938C46.7394 28.4362 46.9355 28.5844 47.1262 28.7382L47.4376 28.9987L47.2234 28.8175L47.2224 18.4643L51 18.4643L51 29.375L47.8507 29.375L47.8245 29.3499C49.7945 31.2246 51 33.7416 51 36.5089C51 42.303 45.7147 47 39.1946 47C33.5692 47 28.8626 43.5035 27.677 38.8226L27.6254 38.608L12.2778 38.6071C9.14817 38.6071 6.61114 36.3526 6.61114 33.5714L6.61114 15.1071C6.61114 12.326 9.14817 10.0714 12.2778 10.0714L23.6112 10.0714L23.611 7.16089C22.2117 6.54287 21.2501 5.25959 21.2501 3.7768C21.2501 1.6909 23.1528 0 25.5001 0ZM39.1946 28.5357C34.2394 28.5357 30.2224 32.1054 30.2224 36.5089C30.2224 40.9124 34.2394 44.4821 39.1946 44.4821C44.1499 44.4821 48.1669 40.9124 48.1669 36.5089C48.1669 32.1054 44.1499 28.5357 39.1946 28.5357ZM36.8335 31.0536L39.6669 31.0536L39.6669 36.0893L43.4447 36.0893L43.4447 38.6071L36.8335 38.6071L36.8335 31.0535L36.8335 31.0536ZM38.7224 14.2678L12.2778 14.2678C11.7935 14.2678 11.3943 14.5919 11.3397 15.0092L11.3334 15.1071L11.3334 33.5714C11.3334 34.0018 11.698 34.3566 12.1677 34.4051L12.2778 34.4107L27.6252 34.4107L27.6192 34.4368C28.7017 29.6352 33.4728 26.0178 39.1946 26.0178L39.453 26.0203L39.6675 26.0261L39.6669 15.1071C39.6669 14.6767 39.3022 14.322 38.8326 14.2735L38.7224 14.2678ZM3.7778 18.4643L3.7778 29.375L0 29.375L0 18.4643L3.7778 18.4643ZM19.3612 20.9821C21.1868 20.9821 22.6668 22.2973 22.6668 23.9196C22.6668 25.542 21.1868 26.8571 19.3612 26.8571C17.5356 26.8571 16.0556 25.542 16.0556 23.9196C16.0556 22.2973 17.5356 20.9821 19.3612 20.9821ZM31.639 20.9821C33.4646 20.9821 34.9446 22.2973 34.9446 23.9196C34.9446 25.542 33.4646 26.8571 31.639 26.8571C29.8134 26.8571 28.3334 25.542 28.3334 23.9196C28.3334 22.2973 29.8134 20.9821 31.639 20.9821Z"   fill="#009688" >
</path>
</svg>
