<svg xmlns="http://www.w3.org/2000/svg" xmlns:xlink="http://www.w3.org/1999/xlink" width="119.9999771118164" height="63" viewBox="0 0 119.9999771118164 63" fill="none">
<path d="M120 51.759C120 53.1571 119.66 54.4713 118.98 55.7017C118.3 56.9321 117.34 58.0366 116.1 59.0153C114.86 59.994 113.42 60.8189 111.78 61.49C110.14 62.1611 108.36 62.6085 106.44 62.8322L106.56 62.9161L104.52 62.9161L104.04 62.9161L103.56 62.9161L24.36 62.9161C23.96 62.9721 23.32 63 22.44 63C19.32 63 16.4 62.5806 13.68 61.7417C10.96 60.9028 8.58 59.7703 6.54 58.3442C4.5 56.9181 2.89999 55.2543 1.74 53.3529C0.579998 51.4514 5.96047e-07 49.4101 4.26326e-13 47.229C-5.96046e-07 45.0479 0.579997 43.0067 1.74 41.1052C2.9 39.2037 4.5 37.5399 6.54 36.1138C8.58 34.6877 10.96 33.5553 13.68 32.7164C16.4 31.8775 19.32 31.4581 22.44 31.4581L22.56 31.4581C22.48 31.0107 22.44 30.5912 22.44 30.1997L22.44 28.8575C22.44 24.8868 23.52 21.1398 25.68 17.6165C27.84 14.0932 30.8 11.0313 34.56 8.43076C38.32 5.83023 42.7 3.77497 47.7 2.26498C52.7 0.754993 58.04 0 63.72 0C69.3999 0 74.76 0.754993 79.8 2.26498C84.84 3.77497 89.24 5.83023 93 8.43076C96.7599 11.0313 99.72 14.0932 101.88 17.6165C104.04 21.1398 105.12 24.8868 105.12 28.8575C105.12 30.9268 104.8 32.954 104.16 34.9394C103.52 36.9248 102.64 38.8123 101.52 40.6019C101.92 40.5459 102.34 40.504 102.78 40.476C103.22 40.4481 103.64 40.4341 104.04 40.4341C106.2 40.4341 108.26 40.7277 110.22 41.3149C112.18 41.9021 113.88 42.7131 115.32 43.7477C116.76 44.7823 117.9 45.9847 118.74 47.3549C119.58 48.725 120 50.193 120 51.759ZM78 41.7763C79.6 41.7763 80.64 41.6505 81.12 41.3988C81.6 41.1471 81.2799 40.5459 80.16 39.5952C79.04 38.5885 77.7999 37.2743 76.44 35.6525C75.08 34.0307 73.66 32.3808 72.18 30.7031C70.7 29.0253 69.2 27.4594 67.68 26.0053C66.16 24.5513 64.68 23.4887 63.24 22.8176C61.8 22.0905 60.74 21.6991 60.06 21.6431C59.38 21.5872 58.4 21.9227 57.12 22.6498C55.68 23.4887 54.2799 24.5513 52.92 25.8375C51.56 27.1238 50.18 28.494 48.78 29.9481C47.38 31.4021 45.98 32.8282 44.58 34.2264C43.18 35.6245 41.76 36.8548 40.32 37.9174C38.88 38.9241 38.36 39.8189 38.76 40.6019C39.16 41.3848 40.16 41.7763 41.76 41.7763L43.68 41.7763C44.4 41.7763 45.18 41.7903 46.02 41.8182C46.86 41.8462 47.68 41.8602 48.48 41.8602L50.52 41.8602C51.6399 41.9161 52.36 42.1817 52.68 42.6571C53 43.1325 53.16 43.7896 53.16 44.6285C53.16 45.5792 53.1399 46.4181 53.1 47.1451C53.06 47.8722 53.04 48.5712 53.04 49.2423C53.04 49.9134 53.02 50.6125 52.98 51.3395C52.94 52.0666 52.92 52.9055 52.92 53.8562C52.92 54.2477 52.98 54.6671 53.1 55.1145C53.22 55.5619 53.4399 55.9813 53.76 56.3728C54.08 56.7643 54.56 57.0859 55.2 57.3375C55.84 57.5892 56.68 57.715 57.72 57.715L60.48 57.715C61.2 57.715 62.28 57.743 63.72 57.7989C65.64 57.7989 66.74 57.4634 67.02 56.7923C67.2999 56.1212 67.44 55.0586 67.44 53.6045C67.44 52.3183 67.46 51.1578 67.5 50.1232C67.5399 49.0886 67.56 47.6764 67.56 45.8868C67.56 44.6006 67.74 43.6078 68.1 42.9088C68.46 42.2097 69.24 41.8602 70.44 41.8602C71.3199 41.8602 72.5799 41.8462 74.22 41.8182C75.86 41.7903 77.12 41.7763 78 41.7763Z"   fill="#7C7E86" >
</path>
</svg>
