<?xml version="1.0" standalone="no"?><!DOCTYPE svg PUBLIC "-//W3C//DTD SVG 1.1//EN" "http://www.w3.org/Graphics/SVG/1.1/DTD/svg11.dtd"><svg t="1751793353941" class="icon" viewBox="0 0 1024 1024" version="1.1" xmlns="http://www.w3.org/2000/svg" p-id="6276" xmlns:xlink="http://www.w3.org/1999/xlink" width="200" height="200"><path d="M232.8 242.4c0 29 39.4 50.9 91.6 50.9s91.6-21.9 91.6-50.9-39.4-50.9-91.6-50.9-91.6 21.9-91.6 50.9z m162.9 0c0 14.4-30.5 30.5-71.3 30.5s-71.3-16.1-71.3-30.5c0-14.4 30.5-30.5 71.3-30.5s71.3 16.1 71.3 30.5zM263.4 452.6c5.6 0 10.2-4.6 10.2-10.2v-61.1c0-5.6-4.6-10.2-10.2-10.2s-10.2 4.6-10.2 10.2v61.1c0 5.6 4.5 10.2 10.2 10.2zM385.5 452.6c5.6 0 10.2-4.6 10.2-10.2v-61.1c0-5.6-4.6-10.2-10.2-10.2s-10.2 4.6-10.2 10.2v61.1c0 5.6 4.6 10.2 10.2 10.2zM253.2 601.7c0 5.6 4.6 10.2 10.2 10.2s10.2-4.6 10.2-10.2v-61.1c0-5.6-4.6-10.2-10.2-10.2s-10.2 4.6-10.2 10.2v61.1zM375.3 601.7c0 5.6 4.6 10.2 10.2 10.2s10.2-4.6 10.2-10.2v-61.1c0-5.6-4.6-10.2-10.2-10.2s-10.2 4.6-10.2 10.2v61.1zM323.8 767.3h-61.1c-5.6 0-10.2 4.6-10.2 10.2s4.6 10.2 10.2 10.2h61.1c5.6 0 10.2-4.6 10.2-10.2 0-5.7-4.5-10.2-10.2-10.2zM378.9 804.7l-43.2 43.2c-4 4-4 10.4 0 14.4 2 2 4.6 3 7.2 3 2.6 0 5.2-1 7.2-3l43.2-43.2c4-4 4-10.4 0-14.4-3.9-4-10.4-4-14.4 0zM350.2 692.7c-4-4-10.4-4-14.4 0s-4 10.4 0 14.4l43.2 43.2c2 2 4.6 3 7.2 3s5.2-1 7.2-3c4-4 4-10.4 0-14.4l-43.2-43.2zM787.6 287.6c-5.6 0-10.2 4.6-10.2 10.2v61.1c0 5.6 4.6 10.2 10.2 10.2s10.2-4.6 10.2-10.2v-61.1c0-5.7-4.5-10.2-10.2-10.2zM717.3 370.8c-4-4-10.4-4-14.4 0s-4 10.4 0 14.4l43.2 43.2c2 2 4.6 3 7.2 3 2.6 0 5.2-1 7.2-3 4-4 4-10.4 0-14.4l-43.2-43.2zM858 370.8L814.8 414c-4 4-4 10.4 0 14.4 2 2 4.6 3 7.2 3 2.6 0 5.2-1 7.2-3l43.2-43.2c4-4 4-10.4 0-14.4s-10.4-4-14.4 0z" fill="#009688" p-id="6277"></path><path d="M924.5 376.4l-25.2-70.6c-16.8-47.1-61.7-78.7-111.6-78.7-50 0-94.8 31.6-111.6 78.7l-25.2 70.6c-0.9 2.6-0.8 5.5 0.5 8l50.9 101.8c1.7 3.4 5.2 5.6 9.1 5.6h61.1v371.6c0 42.1-34.2 76.4-76.4 76.4-42.1 0-76.4-34.2-76.4-76.4V115.1c0-28.1-22.8-50.9-50.9-50.9H365.2c-28.1 0-50.9 22.8-50.9 50.9v20.4H150.2c-27.4 0-49.7 22.3-49.7 49.7v725.2c0 27.4 22.3 49.7 49.7 49.7h348.6c27.4 0 49.7-22.3 49.7-49.7V185.2c0-27.4-22.3-49.7-49.7-49.7H334.6v-20.4c0-16.8 13.7-30.5 30.5-30.5h203.6c16.8 0 30.5 13.7 30.5 30.5v748.2c0 53.3 43.4 96.7 96.7 96.7s96.7-43.4 96.7-96.7V491.8H864c3.9 0 7.4-2.2 9.1-5.6L924 384.4c1.2-2.5 1.4-5.4 0.5-8zM528 185.2v725.2c0 16.2-13.2 29.3-29.3 29.3H150.2c-16.2 0-29.3-13.2-29.3-29.3V185.2c0-16.2 13.2-29.3 29.3-29.3h348.6c16.1-0.1 29.2 13.1 29.2 29.3z m329.7 286.2H717.6l-46.1-92.3 23.8-66.5c13.9-39 51.1-65.1 92.4-65.1s78.5 26.2 92.4 65.1l23.8 66.5-46.2 92.3z" fill="#009688" p-id="6278"></path></svg>